{
  "accessors": [
    {
      "bufferView": 2,
      "componentType": 5126,
      "count": 23004,
      "max": [
        0.3190004825592041,
        0.32291388511657715,
        0.11048018932342529
      ],
      "min": [
        -0.31844842433929443,
        -0.3118699789047241,
        -0.10404539108276367
      ],
      "type": "VEC3"
    },
    {
      "bufferView": 2,
      "byteOffset": 276048,
      "componentType": 5126,
      "count": 23004,
      "max": [
        0.9997252225875854,
        0.9999854564666748,
        0.9999996423721313
      ],
      "min": [
        -0.9979463219642639,
        -0.9994171857833862,
        -0.9999984502792358
      ],
      "type": "VEC3"
    },
    {
      "bufferView": 1,
      "componentType": 5126,
      "count": 23004,
      "max": [
        0.9980400204658508,
        0.9980400204658508
      ],
      "min": [
        0.06960999965667725,
        0.0019499999471008778
      ],
      "type": "VEC2"
    },
    {
      "bufferView": 1,
      "byteOffset": 184032,
      "componentType": 5126,
      "count": 23004,
      "max": [
        0.9980400204658508,
        0.9980400204658508
      ],
      "min": [
        0.06960999965667725,
        0.0019499999471008778
      ],
      "type": "VEC2"
    },
    {
      "bufferView": 0,
      "componentType": 5125,
      "count": 137628,
      "type": "SCALAR"
    },
    {
      "bufferView": 3,
      "componentType": 5126,
      "count": 1,
      "max": [
        0
      ],
      "min": [
        0
      ],
      "type": "SCALAR"
    },
    {
      "bufferView": 4,
      "componentType": 5126,
      "count": 1,
      "max": [
        0.01568966917693615,
        0.009709739126265049,
        -0.0001523685350548476,
        0.9998297691345215
      ],
      "min": [
        0.01568966917693615,
        0.009709739126265049,
        -0.0001523685350548476,
        0.9998297691345215
      ],
      "type": "VEC4"
    }
  ],
  "animations": [
    {
      "channels": [
        {
          "sampler": 0,
          "target": {
            "node": 4,
            "path": "rotation"
          }
        }
      ],
      "name": "Take 001",
      "samplers": [
        {
          "input": 5,
          "interpolation": "LINEAR",
          "output": 6
        }
      ]
    }
  ],
  "asset": {
    "extras": {
      "author": "Virtual Museums of Małopolska (https://sketchfab.com/WirtualneMuzeaMalopolski)",
      "license": "CC0-1.0 (http://creativecommons.org/publicdomain/zero/1.0/)",
      "source": "https://sketchfab.com/3d-models/clay-bowl-80d295fafda644479918ad9c942bd1b7",
      "title": "Clay bowl"
    },
    "generator": "Sketchfab-12.68.0",
    "version": "2.0"
  },
  "bufferViews": [
    {
      "buffer": 0,
      "byteLength": 550512,
      "name": "floatBufferViews",
      "target": 34963,
      "byteOffset": 0
    },
    {
      "buffer": 0,
      "byteLength": 368064,
      "byteOffset": 550512,
      "byteStride": 8,
      "name": "floatBufferViews",
      "target": 34962
    },
    {
      "buffer": 0,
      "byteLength": 552096,
      "byteOffset": 918576,
      "byteStride": 12,
      "name": "floatBufferViews",
      "target": 34962
    },
    {
      "buffer": 0,
      "byteLength": 4,
      "byteOffset": 1470672,
      "name": "floatBufferViews"
    },
    {
      "buffer": 0,
      "byteLength": 16,
      "byteOffset": 1470676,
      "byteStride": 16,
      "name": "floatBufferViews"
    }
  ],
  "buffers": [
    {
      "uri": "bowl_data.bin",
      "byteLength": 1470692
    }
  ],
  "images": [
    {
      "uri": "bowl_img0.jpg"
    },
    {
      "uri": "bowl_img1.png"
    }
  ],
  "materials": [
    {
      "doubleSided": true,
      "name": "07_-_Default",
      "pbrMetallicRoughness": {
        "baseColorTexture": {
          "index": 0
        },
        "metallicFactor": 0,
        "metallicRoughnessTexture": {
          "index": 1
        }
      }
    }
  ],
  "meshes": [
    {
      "name": "Sphere001_07 - Default_0",
      "primitives": [
        {
          "attributes": {
            "NORMAL": 1,
            "POSITION": 0,
            "TEXCOORD_0": 2,
            "TEXCOORD_1": 3
          },
          "indices": 4,
          "material": 0,
          "mode": 4
        }
      ]
    }
  ],
  "nodes": [
    {
      "children": [
        1
      ],
      "matrix": [
        -1,
        2.832769343193999e-16,
        6.290011496532519e-32,
        0,
        0,
        2.220446049250313e-16,
        -1,
        0,
        -2.832769343193999e-16,
        -1,
        -2.220446049250313e-16,
        0,
        0.02856859378516674,
        -8.745975494384766,
        -1.9419966733346707e-15,
        1
      ],
      "name": "Sketchfab_model"
    },
    {
      "children": [
        2
      ],
      "matrix": [
        1,
        0,
        0,
        0,
        0,
        -1,
        0,
        0,
        0,
        0,
        -1,
        0,
        0,
        0,
        0,
        1
      ],
      "name": "2c898f002e7544adad724e8d08f37e5b.fbx"
    },
    {
      "children": [
        3
      ],
      "name": "Object_2"
    },
    {
      "children": [
        4
      ],
      "name": "RootNode"
    },
    {
      "children": [
        5
      ],
      "name": "Sphere001",
      "rotation": [
        0.01568966917693615,
        0.009709738194942474,
        -0.0001523685350548476,
        0.9998297691345215
      ],
      "scale": [
        41.720001220703125,
        41.720001220703125,
        41.720001220703125
      ],
      "translation": [
        0,
        -1.8497911469239625e-7,
        4.231828689575195
      ]
    },
    {
      "mesh": 0,
      "name": "Sphere001_07_Default_0"
    }
  ],
  "samplers": [
    {
      "magFilter": 9729,
      "minFilter": 9987,
      "wrapS": 10497,
      "wrapT": 10497
    }
  ],
  "scene": 0,
  "scenes": [
    {
      "name": "Sketchfab_Scene",
      "nodes": [
        0
      ]
    }
  ],
  "textures": [
    {
      "sampler": 0,
      "source": 0
    },
    {
      "sampler": 0,
      "source": 1
    }
  ]
}