{
  "accessors": [
    {
      "bufferView": 2,
      "componentType": 5126,
      "count": 1776,
      "max": [
        0.19074073433876038,
        0.19074073433876038,
        0.24798564612865448
      ],
      "min": [
        -0.19074073433876038,
        -0.19074073433876038,
        -4.538521225505576e-10
      ],
      "type": "VEC3"
    },
    {
      "bufferView": 2,
      "byteOffset": 21312,
      "componentType": 5126,
      "count": 1776,
      "max": [
        0.9996774196624756,
        0.9996774196624756,
        1
      ],
      "min": [
        -0.9996774196624756,
        -0.9996774792671204,
        -1
      ],
      "type": "VEC3"
    },
    {
      "bufferView": 1,
      "componentType": 5126,
      "count": 1776,
      "max": [
        0.90655517578125,
        0.730898916721344
      ],
      "min": [
        0.02197757363319397,
        0.02311331033706665
      ],
      "type": "VEC2"
    },
    {
      "bufferView": 0,
      "componentType": 5125,
      "count": 7680,
      "type": "SCALAR"
    },
    {
      "bufferView": 2,
      "byteOffset": 42624,
      "componentType": 5126,
      "count": 694,
      "max": [
        0.17024952173233032,
        0.17024952173233032,
        0.2785343825817108
      ],
      "min": [
        -0.17024952173233032,
        -0.17024952173233032,
        0.2488006353378296
      ],
      "type": "VEC3"
    },
    {
      "bufferView": 2,
      "byteOffset": 50952,
      "componentType": 5126,
      "count": 694,
      "max": [
        1,
        1,
        1
      ],
      "min": [
        -1,
        -1,
        -1
      ],
      "type": "VEC3"
    },
    {
      "bufferView": 3,
      "componentType": 5126,
      "count": 694,
      "max": [
        0.8214230537414551,
        1,
        1,
        1
      ],
      "min": [
        -0.8214231133460999,
        -1,
        -1,
        1
      ],
      "type": "VEC4"
    },
    {
      "bufferView": 1,
      "byteOffset": 14208,
      "componentType": 5126,
      "count": 694,
      "max": [
        0.9785115718841553,
        0.9856266975402832
      ],
      "min": [
        0.026162806898355484,
        0.02440137043595314
      ],
      "type": "VEC2"
    },
    {
      "bufferView": 0,
      "byteOffset": 30720,
      "componentType": 5125,
      "count": 1404,
      "type": "SCALAR"
    }
  ],
  "asset": {
    "extras": {
      "author": "GiyoP (https://sketchfab.com/GiyoP)",
      "license": "CC-BY-4.0 (http://creativecommons.org/licenses/by/4.0/)",
      "source": "https://sketchfab.com/3d-models/japanese-ceramic-brasero-cba525be001d4874a3b366829d084657",
      "title": "Japanese Ceramic Brasero"
    },
    "generator": "Sketchfab-12.68.0",
    "version": "2.0"
  },
  "bufferViews": [
    {
      "buffer": 0,
      "byteLength": 36336,
      "name": "floatBufferViews",
      "target": 34963,
      "byteOffset": 0
    },
    {
      "buffer": 0,
      "byteLength": 19760,
      "byteOffset": 36336,
      "byteStride": 8,
      "name": "floatBufferViews",
      "target": 34962
    },
    {
      "buffer": 0,
      "byteLength": 59280,
      "byteOffset": 56096,
      "byteStride": 12,
      "name": "floatBufferViews",
      "target": 34962
    },
    {
      "buffer": 0,
      "byteLength": 11104,
      "byteOffset": 115376,
      "byteStride": 16,
      "name": "floatBufferViews",
      "target": 34962
    }
  ],
  "buffers": [
    {
      "uri": "brasero_data.bin",
      "byteLength": 126480
    }
  ],
  "images": [
    {
      "uri": "brasero_img0.jpg"
    },
    {
      "uri": "brasero_img1.png"
    },
    {
      "uri": "brasero_img2.jpg"
    },
    {
      "uri": "brasero_img3.png"
    },
    {
      "uri": "brasero_img4.png"
    }
  ],
  "materials": [
    {
      "doubleSided": true,
      "name": "Vase",
      "pbrMetallicRoughness": {
        "baseColorTexture": {
          "index": 0
        },
        "metallicFactor": 0,
        "metallicRoughnessTexture": {
          "index": 1
        },
        "roughnessFactor": 0.9590320121951219
      }
    },
    {
      "doubleSided": true,
      "name": "material",
      "normalTexture": {
        "index": 4,
        "scale": 0.3309832317073171
      },
      "occlusionTexture": {
        "index": 3
      },
      "pbrMetallicRoughness": {
        "baseColorTexture": {
          "index": 2
        },
        "metallicFactor": 0,
        "metallicRoughnessTexture": {
          "index": 3
        }
      }
    }
  ],
  "meshes": [
    {
      "name": "Hibachi_Vase_0",
      "primitives": [
        {
          "attributes": {
            "NORMAL": 1,
            "POSITION": 0,
            "TEXCOORD_0": 2
          },
          "indices": 3,
          "material": 0,
          "mode": 4
        }
      ]
    },
    {
      "name": "Hibachi_Lid_0",
      "primitives": [
        {
          "attributes": {
            "NORMAL": 5,
            "POSITION": 4,
            "TANGENT": 6,
            "TEXCOORD_0": 7
          },
          "indices": 8,
          "material": 1,
          "mode": 4
        }
      ]
    }
  ],
  "nodes": [
    {
      "children": [
        1
      ],
      "matrix": [
        1,
        0,
        0,
        0,
        0,
        2.220446049250313e-16,
        -1,
        0,
        0,
        1,
        2.220446049250313e-16,
        0,
        0,
        0,
        0,
        1
      ],
      "name": "Sketchfab_model"
    },
    {
      "children": [
        2
      ],
      "matrix": [
        1,
        0,
        0,
        0,
        0,
        0,
        1,
        0,
        0,
        -1,
        0,
        0,
        0,
        0,
        0,
        1
      ],
      "name": "d60f109b1fdc42be815e75f9efcaf413.fbx"
    },
    {
      "children": [
        3
      ],
      "name": "RootNode"
    },
    {
      "children": [
        4,
        5
      ],
      "matrix": [
        100,
        0,
        0,
        0,
        0,
        -0.00001629206793918314,
        -99.99999999999868,
        0,
        0,
        99.99999999999868,
        -0.00001629206793918314,
        0,
        0,
        0,
        0,
        1
      ],
      "name": "Hibachi"
    },
    {
      "mesh": 0,
      "name": "Hibachi_Vase_0"
    },
    {
      "mesh": 1,
      "name": "Hibachi_Lid_0"
    }
  ],
  "samplers": [
    {
      "magFilter": 9729,
      "minFilter": 9987,
      "wrapS": 10497,
      "wrapT": 10497
    }
  ],
  "scene": 0,
  "scenes": [
    {
      "name": "Sketchfab_Scene",
      "nodes": [
        0
      ]
    }
  ],
  "textures": [
    {
      "sampler": 0,
      "source": 0
    },
    {
      "sampler": 0,
      "source": 1
    },
    {
      "sampler": 0,
      "source": 2
    },
    {
      "sampler": 0,
      "source": 3
    },
    {
      "sampler": 0,
      "source": 4
    }
  ]
}