{
  "accessors": [
    {
      "bufferView": 2,
      "componentType": 5126,
      "count": 3115,
      "max": [
        4.968039035797119,
        4.968063831329346,
        14.087064743041992
      ],
      "min": [
        -4.968059062957764,
        -4.968033790588379,
        0.008040999993681908
      ],
      "type": "VEC3"
    },
    {
      "bufferView": 2,
      "byteOffset": 37380,
      "componentType": 5126,
      "count": 3115,
      "max": [
        1,
        1,
        1
      ],
      "min": [
        -1,
        -1,
        -1
      ],
      "type": "VEC3"
    },
    {
      "bufferView": 1,
      "componentType": 5126,
      "count": 3115,
      "max": [
        0.9920920133590698,
        0.99931800365448
      ],
      "min": [
        0.0003969999961555004,
        0.009878999553620815
      ],
      "type": "VEC2"
    },
    {
      "bufferView": 0,
      "componentType": 5125,
      "count": 16512,
      "type": "SCALAR"
    }
  ],
  "asset": {
    "extras": {
      "author": "Sam Feng (https://sketchfab.com/fengyuan20000303)",
      "license": "CC-BY-NC-4.0 (http://creativecommons.org/licenses/by-nc/4.0/)",
      "source": "https://sketchfab.com/3d-models/japanese-tea-cup-506f16847d0a4565bdf5d4fa4c358546",
      "title": "Japanese Tea Cup"
    },
    "generator": "Sketchfab-12.68.0",
    "version": "2.0"
  },
  "bufferViews": [
    {
      "buffer": 0,
      "byteLength": 66048,
      "name": "floatBufferViews",
      "target": 34963,
      "byteOffset": 0
    },
    {
      "buffer": 0,
      "byteLength": 24920,
      "byteOffset": 66048,
      "byteStride": 8,
      "name": "floatBufferViews",
      "target": 34962
    },
    {
      "buffer": 0,
      "byteLength": 74760,
      "byteOffset": 90968,
      "byteStride": 12,
      "name": "floatBufferViews",
      "target": 34962
    }
  ],
  "buffers": [
    {
      "uri": "teacup_data.bin",
      "byteLength": 165728
    }
  ],
  "images": [
    {
      "uri": "teacup_img0.png"
    },
    {
      "uri": "teacup_img1.png"
    }
  ],
  "materials": [
    {
      "doubleSided": true,
      "name": "material",
      "pbrMetallicRoughness": {
        "baseColorTexture": {
          "index": 0
        },
        "metallicFactor": 0.21451610941879626,
        "metallicRoughnessTexture": {
          "index": 1
        }
      }
    }
  ],
  "meshes": [
    {
      "name": "Object_0",
      "primitives": [
        {
          "attributes": {
            "NORMAL": 1,
            "POSITION": 0,
            "TEXCOORD_0": 2
          },
          "indices": 3,
          "material": 0,
          "mode": 4
        }
      ]
    }
  ],
  "nodes": [
    {
      "children": [
        1
      ],
      "matrix": [
        0.016425808891654015,
        0,
        0,
        0,
        0,
        3.647262245921382e-18,
        -0.016425808891654015,
        0,
        0,
        0.016425808891654015,
        3.647262245921382e-18,
        0,
        0,
        0,
        0,
        1
      ],
      "name": "Sketchfab_model"
    },
    {
      "children": [
        2
      ],
      "name": "170d7394a40c406b9a60d4ac419934ec.obj.cleaner.materialmerger.gles"
    },
    {
      "mesh": 0,
      "name": "Object_2"
    }
  ],
  "samplers": [
    {
      "magFilter": 9729,
      "minFilter": 9987,
      "wrapS": 10497,
      "wrapT": 10497
    }
  ],
  "scene": 0,
  "scenes": [
    {
      "name": "Sketchfab_Scene",
      "nodes": [
        0
      ]
    }
  ],
  "textures": [
    {
      "sampler": 0,
      "source": 0
    },
    {
      "sampler": 0,
      "source": 1
    }
  ]
}